<?xml version="1.0" encoding="utf-8" standalone="no"?>
<svg xmlns="http://www.w3.org/2000/svg" xmlns:xl="http://www.w3.org/1999/xlink" version="1.1" viewBox="0 0 512 512" width="512pt" height="512pt" xmlns:dc="http://purl.org/dc/elements/1.1/"><defs><linearGradient x1="0" x2="1" id="Gradient" gradientUnits="userSpaceOnUse"><stop offset="0" stop-color="#2e3e6a" stop-opacity="0"/><stop offset="1" stop-color="#2a3960"/></linearGradient><linearGradient id="Obj_Gradient" xl:href="#Gradient" gradientTransform="translate(286.45783 268.86937) rotate(180) scale(39.457831)"/><linearGradient x1="0" x2="1" id="Gradient_2" gradientUnits="userSpaceOnUse"><stop offset="0" stop-color="#3a4e84"/><stop offset="1" stop-color="#2e3e69"/></linearGradient><linearGradient id="Obj_Gradient_2" xl:href="#Gradient_2" gradientTransform="translate(335.7145 401.7475) rotate(-135) scale(38.837135)"/></defs><g stroke="none" stroke-opacity="1" stroke-dasharray="none" fill="none" fill-opacity="1"><g><path d="M 67 162.63561 L 445 162.63561 L 369.4 120.63561 L 142.6 120.63561 Z" fill="#496795"/><path d="M 85 158.63561 L 427 158.63561 C 451.85281 158.63561 472 178.7828 472 203.63561 L 472 434.6356 C 472 459.48842 451.85281 479.6356 427 479.6356 L 85 479.6356 C 60.147186 479.6356 40 459.48842 40 434.6356 L 40 203.63561 C 40 178.7828 60.147186 158.63561 85 158.63561 Z" fill="#425995"/><rect x="158" y="30.814433" width="195" height="105.185567" fill="#eed39d"/><rect x="176.3557" y="49.160294" width="66" height="72.673664" fill="#796b59"/><rect x="258.3557" y="49.160294" width="79" height="19.124649" fill="#796b59"/><rect x="258.3557" y="75.9348" width="79" height="19.124649" fill="#796b59"/><rect x="258.3557" y="102.70931" width="79" height="19.124649" fill="#796b59"/><path d="M 353.3557 157.07886 L 158.3557 137.07886 L 353.3557 137.07886 Z" fill="#395277"/><circle cx="256" cy="320" r="125.0002" fill="#394e84"/><path d="M 247 311.63698 L 261.86486 212 L 262.32432 212 L 286.45783 224.16216 L 286.45783 325.73874 Z" fill="url(#Obj_Gradient)"/><rect x="247" y="212" width="15" height="100" fill="white"/><path d="M 314 369.4264 L 303.3934 380.033 L 260.96699 337.6066 L 271.5736 327 Z" fill="white"/><path d="M 341.0178 396.4442 L 330.4112 407.0508 L 302.9492 379.5888 L 313.5558 368.9822 Z" fill="url(#Obj_Gradient_2)"/></g></g></svg>
